<?xml version="1.0" encoding="utf-8"?>
<svg version="1.1" xmlns:xlink="http://www.w3.org/1999/xlink" width="90px" height="26px" xmlns="http://www.w3.org/2000/svg">
  <defs>
    <pattern id="BGPattern" patternUnits="userSpaceOnUse" alignment="0 0" imageRepeat="None" />
    <mask fill="white" id="Clip24">
      <path d="M 0 21  L 0 5  C 0 2.1999999999999886  1.9800000000000026 0  4.5 0  L 52.65 0  L 85.5 0  C 88.02000000000001 0  90 2.1999999999999886  90 5  L 90 21  C 90 23.80000000000001  88.02000000000001 26  85.5 26  L 53.775000000000006 26  L 4.5 26  C 1.9800000000000026 26  0 23.80000000000001  0 21  Z " fill-rule="evenodd" />
    </mask>
  </defs>
  <g transform="matrix(1 0 0 1 -373 -330 )">
    <path d="M 0 21  L 0 5  C 0 2.1999999999999886  1.9800000000000026 0  4.5 0  L 52.65 0  L 85.5 0  C 88.02000000000001 0  90 2.1999999999999886  90 5  L 90 21  C 90 23.80000000000001  88.02000000000001 26  85.5 26  L 53.775000000000006 26  L 4.5 26  C 1.9800000000000026 26  0 23.80000000000001  0 21  Z " fill-rule="nonzero" fill="rgba(245, 154, 35, 1)" stroke="none" transform="matrix(1 0 0 1 373 330 )" class="fill" />
    <path d="M 0 21  L 0 5  C 0 2.1999999999999886  1.9800000000000026 0  4.5 0  L 52.65 0  L 85.5 0  C 88.02000000000001 0  90 2.1999999999999886  90 5  L 90 21  C 90 23.80000000000001  88.02000000000001 26  85.5 26  L 53.775000000000006 26  L 4.5 26  C 1.9800000000000026 26  0 23.80000000000001  0 21  Z " stroke-width="0" stroke-dasharray="0" stroke="rgba(121, 121, 121, 1)" fill="none" transform="matrix(1 0 0 1 373 330 )" class="stroke" mask="url(#Clip24)" />
  </g>
</svg>